<svg xmlns="http://www.w3.org/2000/svg" viewBox="0 0 539 539" width="538.54" height="521.78"><metadata><rdf:RDF xmlns:rdf="http://www.w3.org/1999/02/22-rdf-syntax-ns#" xmlns:dc="http://purl.org/dc/elements/1.1/"><rdf:Description><dc:creator>RealFaviconGenerator</dc:creator><dc:source>https://realfavicongenerator.net</dc:source></rdf:Description></rdf:RDF></metadata><path fill="#ff8200" d="M509.52 403.36v-.17H303.95L169.69 269.21c-5.18-5.17-5.14-13.59.11-18.7l129.97-126.66a13.13 13.13 0 0 1 9.17-3.73h200.59v-.17c9.7-1.22 17.22-9.49 17.22-19.52V17.59c.01-8.88-7.18-16.07-16.06-16.07h-70.54c-4.96 0-9.74 1.87-13.38 5.24L315.04 99.5c-4.28 3.55-10.76.51-10.76-5.05V16.07C304.28 7.2 297.09 0 288.21 0H221.5c-3.33 0-6.53 1.32-8.89 3.68L11.78 204.06c-31.43 31.36-31.43 82.29 0 113.65L212.59 518.1c2.36 2.35 5.56 3.68 8.89 3.68h66.71c8.87 0 16.07-7.19 16.07-16.07v-76.84c0-5.56 6.49-8.61 10.76-5.05l113.75 94.6c2.34 2.16 5.41 3.36 8.59 3.36h73.31c8.88 0 16.07-7.2 16.07-16.07v-82.83c-.01-10.04-7.52-18.3-17.23-19.52Z"></path></svg>