<svg xmlns="http://www.w3.org/2000/svg" viewBox="0 0 581.37 629.08"><path fill="currentColor" d="M525.17 383.59v-.16H329.68L202 256.02c-4.93-4.92-4.88-12.92.1-17.78l123.6-120.46c2.33-2.27 5.46-3.55 8.72-3.55h190.76v-.16c9.23-1.16 16.37-9.02 16.37-18.57V16.73c.01-8.44-6.83-15.28-15.27-15.28h-67.09c-4.72 0-9.26 1.78-12.72 4.98l-106.25 88.2c-4.07 3.38-10.23.48-10.23-4.81V15.28c0-8.44-6.84-15.28-15.28-15.28h-63.44c-3.17 0-6.21 1.26-8.46 3.5L51.82 194.06c-29.89 29.83-29.89 78.25 0 108.08l190.97 190.57c2.24 2.24 5.28 3.5 8.46 3.5h63.44c8.44 0 15.28-6.84 15.28-15.28v-73.08c0-5.29 6.17-8.18 10.24-4.8l108.18 89.96c2.22 2.06 5.14 3.2 8.17 3.2h69.71c8.44 0 15.28-6.84 15.28-15.28v-78.77c-.01-9.54-7.15-17.4-16.38-18.57"/><text y="534.27" fill="currentColor" dominant-baseline="text-before-edge" font-family="Supreme-Extrabold, Supreme" font-size="94.81" font-weight="700" lengthAdjust="spacingAndGlyphs" textLength="581.37">CONDOMAIN</text></svg>