<svg xmlns="http://www.w3.org/2000/svg" viewBox="0 0 796.93 136.52"><g fill="currentColor"><path d="M132.82 105.4v-.05H79.23l-35-34.92a3.417 3.417 0 0 1 .03-4.87l33.88-33.02c.64-.62 1.5-.97 2.39-.97h52.29v-.05a5.13 5.13 0 0 0 4.49-5.09V4.85c0-2.31-1.87-4.19-4.19-4.19h-18.39c-1.29 0-2.54.49-3.49 1.37L82.12 26.2c-1.12.93-2.8.13-2.8-1.32V4.45c0-2.31-1.88-4.19-4.19-4.19H57.74c-.87 0-1.7.34-2.32.96L3.07 53.45c-8.19 8.18-8.19 21.45 0 29.63l52.35 52.23c.62.61 1.45.96 2.32.96h17.39c2.31 0 4.19-1.88 4.19-4.19v-20.03c0-1.45 1.69-2.24 2.81-1.32l29.65 24.66c.61.56 1.41.88 2.24.88h19.11c2.31 0 4.19-1.88 4.19-4.19v-21.59c0-2.62-1.96-4.77-4.49-5.09Z"/><text x="201.91" y="13.18" dominant-baseline="text-before-edge" font-family="Supreme-Extrabold, Supreme" font-size="97.04" font-weight="700" lengthAdjust="spacingAndGlyphs" textLength="595.01" transform="translate(-3.07 .26)">CONDOMAIN</text></g></svg>